<?xml version="1.0" encoding="UTF-8"?>
<!DOCTYPE svg PUBLIC "-//W3C//DTD SVG 1.1//EN" "http://www.w3.org/Graphics/SVG/1.1/DTD/svg11.dtd">
<svg xmlns="http://www.w3.org/2000/svg" version="1.1" width="768px" height="373px" style="shape-rendering:geometricPrecision; text-rendering:geometricPrecision; image-rendering:optimizeQuality; fill-rule:evenodd; clip-rule:evenodd" xmlns:xlink="http://www.w3.org/1999/xlink">
<g><path style="opacity:0.998" fill="#fefefe" d="M 346.5,42.5 C 365.279,39.7525 382.279,43.9192 397.5,55C 405.169,62.1686 412.502,69.6686 419.5,77.5C 422.899,68.1375 426.399,58.8041 430,49.5C 431.214,47.9512 432.714,46.7845 434.5,46C 446.833,45.3333 459.167,45.3333 471.5,46C 476.099,47.5981 478.932,50.7647 480,55.5C 480.667,119.5 480.667,183.5 480,247.5C 475.828,297.658 449.995,330.825 402.5,347C 362.357,357.476 324.691,351.809 289.5,330C 285.701,327.203 282.201,324.036 279,320.5C 277.48,316.625 277.146,312.625 278,308.5C 284.728,297.771 292.228,287.604 300.5,278C 304.795,274.816 309.129,274.816 313.5,278C 322.272,285.932 332.605,290.599 344.5,292C 362.057,294.889 378.723,292.222 394.5,284C 412.725,272.044 419.559,255.21 415,233.5C 406.423,244.079 396.59,253.245 385.5,261C 370.008,267.935 354.008,269.268 337.5,265C 287.548,253.381 258.715,222.215 251,171.5C 247.236,133.124 258.402,99.9578 284.5,72C 302.255,55.9548 322.922,46.1215 346.5,42.5 Z M 361.5,101.5 C 394.003,103.505 413.169,120.505 419,152.5C 420.481,174.704 411.981,191.87 393.5,204C 373.074,214.578 353.074,213.911 333.5,202C 320.317,189.962 313.651,174.962 313.5,157C 314.19,132.921 325.19,115.587 346.5,105C 351.545,103.425 356.545,102.259 361.5,101.5 Z"/></g>
<g><path style="opacity:0.998" fill="#fefefe" d="M 619.5,42.5 C 668.275,40.1327 705.441,59.4661 731,100.5C 749.97,137.992 750.303,175.659 732,213.5C 706.721,255.228 669.554,275.061 620.5,273C 565.107,265.552 530.607,234.719 517,180.5C 509.972,136.914 522.472,100.081 554.5,70C 573.531,54.493 595.198,45.3263 619.5,42.5 Z M 621.5,102.5 C 652.155,100.579 670.989,114.579 678,144.5C 682.481,168.055 675.981,187.889 658.5,204C 645.556,212.355 631.556,214.688 616.5,211C 594.479,203.815 582.312,188.648 580,165.5C 577.785,143.452 584.952,125.285 601.5,111C 607.73,106.876 614.397,104.043 621.5,102.5 Z"/></g>
<g><path style="opacity:0.988" fill="#3a797f" d="M 132.5,132.5 C 105.952,146.881 85.1184,167.214 70,193.5C 66.5859,189.006 63.4192,184.34 60.5,179.5C 75.0742,138.091 102.574,108.758 143,91.5C 146.833,101 150.667,110.5 154.5,120C 147.002,123.915 139.669,128.081 132.5,132.5 Z"/></g>
<g><path style="opacity:0.988" fill="#3a797f" d="M 132.5,132.5 C 172.02,147.184 200.02,174.018 216.5,213C 206.991,217.45 197.324,221.617 187.5,225.5C 173.193,190.52 150.193,162.854 118.5,142.5C 123.234,139.145 127.9,135.812 132.5,132.5 Z"/></g>
<g><path style="opacity:0.988" fill="#3a797f" d="M 44.5,155.5 C 45.675,155.281 46.675,155.614 47.5,156.5C 62.4106,193.907 87.4106,222.407 122.5,242C 118,245.085 113.333,247.918 108.5,250.5C 65.8051,236.475 35.4718,208.809 17.5,167.5C 26.4417,163.192 35.4417,159.192 44.5,155.5 Z"/></g>
<g><path style="opacity:0.994" fill="#3e7c81" d="M 115.5,175.5 C 131.111,173.949 138.944,180.949 139,196.5C 134.33,210.248 125.164,214.415 111.5,209C 100.06,199.097 99.727,188.764 110.5,178C 112.315,177.243 113.981,176.41 115.5,175.5 Z"/></g>
<g><path style="opacity:0.988" fill="#3a797f" d="M 169.5,197.5 C 174.017,202.679 177.684,208.512 180.5,215C 164.213,249.453 138.546,274.286 103.5,289.5C 98.8281,280.318 94.8281,270.818 91.5,261C 108.94,252.781 125.274,242.781 140.5,231C 151.835,221.173 161.501,210.006 169.5,197.5 Z"/></g>
</svg>
