<?xml version="1.0" encoding="UTF-8"?>
<!DOCTYPE svg PUBLIC "-//W3C//DTD SVG 1.1//EN" "http://www.w3.org/Graphics/SVG/1.1/DTD/svg11.dtd">
<svg xmlns="http://www.w3.org/2000/svg" version="1.1" width="900px" height="373px" style="shape-rendering:geometricPrecision; text-rendering:geometricPrecision; image-rendering:optimizeQuality; fill-rule:evenodd; clip-rule:evenodd" xmlns:xlink="http://www.w3.org/1999/xlink">
<g><path style="opacity:0.947" fill="#cc8c30" d="M 226.5,36.5 C 227.5,36.5 228.5,36.5 229.5,36.5C 233.584,49.4744 238.584,62.141 244.5,74.5C 245.269,77.1147 245.603,79.7814 245.5,82.5C 234.854,86.386 224.52,91.0527 214.5,96.5C 214.877,98.8241 215.877,99.4908 217.5,98.5C 219.779,99.7366 221.945,101.07 224,102.5C 224.414,102.043 224.914,101.709 225.5,101.5C 227.149,102.706 228.649,104.039 230,105.5C 230.561,104.978 231.228,104.645 232,104.5C 237.848,108.565 244.015,112.065 250.5,115C 256.5,119 262.5,123 268.5,127C 276.506,134.466 284.839,141.633 293.5,148.5C 312.314,169.311 327.314,192.811 338.5,219C 338.312,220.882 337.312,222.048 335.5,222.5C 323.167,227.083 311.001,232.083 299,237.5C 296.901,238.287 294.734,238.62 292.5,238.5C 290.874,232.457 288.374,226.791 285,221.5C 270.004,256.538 247.17,285.205 216.5,307.5C 215.585,308.328 214.919,309.328 214.5,310.5C 202.216,318.305 189.049,325.638 175,332.5C 171.974,333.872 168.807,334.538 165.5,334.5C 161.299,321.573 156.299,308.906 150.5,296.5C 149.731,293.885 149.397,291.219 149.5,288.5C 158.188,285.714 166.522,282.047 174.5,277.5C 174.106,274.865 172.939,274.199 171,275.5C 168.463,274.458 166.129,273.125 164,271.5C 162.951,272.517 161.784,272.684 160.5,272C 158.423,271.193 156.589,270.026 155,268.5C 154.586,268.957 154.086,269.291 153.5,269.5C 115.941,252.354 84.6078,226.688 59.5,192.5C 52.1847,179.874 45.3514,166.874 39,153.5C 38.2025,151.741 38.3691,150.074 39.5,148.5C 51.9291,143.691 64.2624,138.691 76.5,133.5C 79.1147,132.731 81.7814,132.397 84.5,132.5C 88.6682,144.659 94.0016,156.326 100.5,167.5C 101.002,168.521 101.668,168.688 102.5,168C 106.87,156.348 111.703,144.848 117,133.5C 125.257,119.923 134.257,106.923 144,94.5C 151.886,87.0698 159.553,79.4031 167,71.5C 167.333,71.8333 167.667,72.1667 168,72.5C 185.462,57.1922 204.962,45.1922 226.5,36.5 Z M 206.5,101.5 C 205.86,103.332 204.86,103.665 203.5,102.5C 204.325,101.614 205.325,101.281 206.5,101.5 Z M 190.5,111.5 C 190.5,112.833 190.5,114.167 190.5,115.5C 192.124,115.36 193.29,116.027 194,117.5C 194.414,117.043 194.914,116.709 195.5,116.5C 196.5,117.833 197.5,119.167 198.5,120.5C 199.086,120.291 199.586,119.957 200,119.5C 201,120.833 202,122.167 203,123.5C 203.414,123.043 203.914,122.709 204.5,122.5C 208.197,125.834 211.864,129.167 215.5,132.5C 216.086,132.291 216.586,131.957 217,131.5C 219.646,134.98 222.479,138.314 225.5,141.5C 226.086,141.291 226.586,140.957 227,140.5C 241.569,154.227 254.069,169.56 264.5,186.5C 267.886,188.551 269.552,191.551 269.5,195.5C 268.5,195.5 267.5,195.5 266.5,195.5C 265.772,198.932 264.605,201.598 263,203.5C 256.93,211.142 250.43,218.475 243.5,225.5C 242.643,226.736 241.977,228.069 241.5,229.5C 234.901,234.308 228.901,239.808 223.5,246C 215.188,252.335 207.021,258.168 199,263.5C 194.27,260.08 189.436,256.746 184.5,253.5C 183.914,253.709 183.414,254.043 183,254.5C 180.288,252.556 177.455,250.722 174.5,249C 171.231,247.189 168.564,244.689 166.5,241.5C 165.914,241.709 165.414,242.043 165,242.5C 162.843,240.208 160.676,237.875 158.5,235.5C 157.914,235.709 157.414,236.043 157,236.5C 147.52,225.586 137.687,215.586 127.5,206.5C 123.833,201.5 120.167,196.5 116.5,191.5C 117.325,190.614 118.325,190.281 119.5,190.5C 126.157,176.98 134.324,164.313 144,152.5C 155.609,140.92 167.109,129.92 178.5,119.5C 179.086,119.709 179.586,120.043 180,120.5C 181.167,119 182.333,117.5 183.5,116C 186.233,115.096 188.567,113.596 190.5,111.5 Z M 105.5,176.5 C 106.077,175.227 106.743,175.227 107.5,176.5C 107.03,177.463 106.363,177.463 105.5,176.5 Z M 269.5,195.5 C 271.686,195.511 272.519,196.511 272,198.5C 270.955,197.627 270.122,196.627 269.5,195.5 Z M 272.5,199.5 C 274.337,199.639 274.67,200.306 273.5,201.5C 272.702,201.043 272.369,200.376 272.5,199.5 Z M 275.5,204.5 C 276.833,204.5 277.5,205.167 277.5,206.5C 276.5,206.167 275.833,205.5 275.5,204.5 Z M 278.5,209.5 C 279.906,209.973 280.573,210.973 280.5,212.5C 279.094,212.027 278.427,211.027 278.5,209.5 Z M 281.5,215.5 C 282.906,215.973 283.573,216.973 283.5,218.5C 282.094,218.027 281.427,217.027 281.5,215.5 Z M 193.5,266.5 C 194.14,264.668 195.14,264.335 196.5,265.5C 195.675,266.386 194.675,266.719 193.5,266.5 Z M 188.5,269.5 C 189.172,268.733 190.005,268.066 191,267.5C 191.188,269.061 190.355,269.728 188.5,269.5 Z"/></g>
<g><path style="opacity:0.998" fill="#fefefe" d="M 478.5,42.5 C 497.279,39.7525 514.279,43.9192 529.5,55C 537.169,62.1686 544.502,69.6686 551.5,77.5C 554.899,68.1375 558.399,58.8041 562,49.5C 563.214,47.9512 564.714,46.7845 566.5,46C 578.833,45.3333 591.167,45.3333 603.5,46C 608.099,47.5981 610.932,50.7647 612,55.5C 612.667,119.5 612.667,183.5 612,247.5C 607.828,297.658 581.995,330.825 534.5,347C 494.357,357.476 456.691,351.809 421.5,330C 417.701,327.203 414.201,324.036 411,320.5C 409.48,316.625 409.146,312.625 410,308.5C 416.728,297.771 424.228,287.604 432.5,278C 436.795,274.816 441.129,274.816 445.5,278C 454.272,285.932 464.605,290.599 476.5,292C 494.057,294.889 510.723,292.222 526.5,284C 544.725,272.044 551.559,255.21 547,233.5C 538.423,244.079 528.59,253.245 517.5,261C 502.008,267.935 486.008,269.268 469.5,265C 419.548,253.381 390.715,222.215 383,171.5C 379.236,133.124 390.402,99.9578 416.5,72C 434.255,55.9548 454.922,46.1215 478.5,42.5 Z M 493.5,101.5 C 526.003,103.505 545.169,120.505 551,152.5C 552.481,174.704 543.981,191.87 525.5,204C 505.074,214.578 485.074,213.911 465.5,202C 452.317,189.962 445.651,174.962 445.5,157C 446.19,132.921 457.19,115.587 478.5,105C 483.545,103.425 488.545,102.259 493.5,101.5 Z"/></g>
<g><path style="opacity:0.998" fill="#fefefe" d="M 751.5,42.5 C 800.275,40.1327 837.441,59.4661 863,100.5C 881.97,137.992 882.303,175.659 864,213.5C 838.721,255.228 801.554,275.061 752.5,273C 697.107,265.552 662.607,234.719 649,180.5C 641.972,136.914 654.472,100.081 686.5,70C 705.531,54.493 727.198,45.3263 751.5,42.5 Z M 753.5,102.5 C 784.155,100.579 802.989,114.579 810,144.5C 814.481,168.055 807.981,187.889 790.5,204C 777.556,212.355 763.556,214.688 748.5,211C 726.479,203.815 714.312,188.648 712,165.5C 709.785,143.452 716.952,125.285 733.5,111C 739.73,106.876 746.397,104.043 753.5,102.5 Z"/></g>
<g><path style="opacity:0.934" fill="#cc8b30" d="M 185.5,162.5 C 207.72,158.419 220.387,167.419 223.5,189.5C 223.256,197.94 220.256,205.107 214.5,211C 201.167,219.667 187.833,219.667 174.5,211C 161.854,195.079 162.854,180.079 177.5,166C 180.194,164.626 182.861,163.459 185.5,162.5 Z"/></g>
</svg>
